<?xml version="1.0" encoding="UTF-8"?> <svg xmlns="http://www.w3.org/2000/svg" width="399" height="231" viewBox="0 0 399 231" fill="none"> <path d="M12.568 86.408C12.568 88.84 12.568 91.912 12.184 93.576C11.8 96.008 10.776 97.8 7.832 98.568C6.168 99.08 0.28 99.208 0.28 99.208V101H27.416C68.504 101 74.136 83.592 74.136 73.736C74.136 61.704 65.176 50.568 42.008 47.752C54.168 44.808 59.16 37.384 59.16 30.6C59.16 21 52.632 11.4 27.416 11.4H0.28V13.192C0.28 13.192 6.168 13.32 7.832 13.832C10.776 14.6 11.8 16.392 12.184 18.824C12.568 20.488 12.568 24.84 12.568 28.168V86.408ZM29.72 49.16H32.28C53.144 50.44 63.512 61.32 63.512 72.328C63.512 92.04 41.496 98.952 27.416 98.952H23.32V12.936H27.416C41.624 12.936 48.408 19.592 48.408 29.832C48.408 40.712 40.472 47.112 32.28 47.112H29.72V49.16ZM87.693 86.408C87.693 88.84 87.693 91.912 87.309 93.576C86.925 96.008 85.901 97.8 82.957 98.568C81.293 99.08 75.405 99.208 75.405 99.208V101H110.733V99.208C110.733 99.208 104.845 99.08 103.181 98.568C100.237 97.8 99.213 96.008 98.829 93.576C98.445 91.912 98.445 87.56 98.445 84.232V28.168C98.445 24.84 98.445 20.488 98.829 18.824C99.213 16.392 100.237 14.6 103.181 13.832C104.845 13.32 110.733 13.192 110.733 13.192V11.4H75.405V13.192C75.405 13.192 81.293 13.32 82.957 13.832C85.901 14.6 86.925 16.392 87.309 18.824C87.693 20.488 87.693 24.84 87.693 28.168V86.408ZM148.992 11.4H113.28V13.192C113.28 13.192 119.168 13.32 120.832 13.832C123.904 14.6 124.8 16.392 125.184 18.824C125.568 20.488 125.568 23.56 125.696 25.992V86.408C125.568 88.84 125.568 91.912 125.184 93.576C124.8 96.008 123.904 97.8 120.832 98.568C119.168 99.08 113.28 99.208 113.28 99.208V101H183.936L189.568 46.856H187.776C187.776 46.856 185.088 71.944 182.912 83.464C180.352 97.416 174.592 98.056 166.656 98.568C158.848 99.208 136.96 98.952 136.192 98.952L136.448 14.216L148.992 13.192V11.4ZM195.443 86.408C195.443 88.84 195.443 91.912 195.059 93.576C194.675 96.008 193.651 97.8 190.707 98.568C189.043 99.08 183.155 99.208 183.155 99.208V101H218.483V99.208C218.483 99.208 212.595 99.08 210.931 98.568C207.987 97.8 206.963 96.008 206.579 93.576C206.195 91.912 206.195 87.56 206.195 84.232V28.168C206.195 24.84 206.195 20.488 206.579 18.824C206.963 16.392 207.987 14.6 210.931 13.832C212.595 13.32 218.483 13.192 218.483 13.192V11.4H183.155V13.192C183.155 13.192 189.043 13.32 190.707 13.832C193.651 14.6 194.675 16.392 195.059 18.824C195.443 20.488 195.443 24.84 195.443 28.168V86.408ZM225.638 11.528L226.022 0.391998H224.23L222.822 13.064L217.19 59.016L218.982 59.272C218.982 59.272 221.158 45.704 222.054 39.304C224.742 20.104 228.582 13.96 242.15 13.704C244.838 13.704 249.574 13.576 249.574 13.576H256.23V87.048C256.23 89.224 255.974 92.424 255.718 93.96C255.334 96.264 254.566 97.928 251.494 98.824C249.958 99.208 244.326 99.336 244.326 99.336V101H278.63V99.208L266.982 98.312V13.448H273.638C273.638 13.448 278.374 13.576 281.062 13.576C294.63 13.832 298.47 19.976 301.158 39.176C302.054 45.576 304.23 59.144 304.23 59.144L306.022 58.888L300.39 12.936L298.982 0.263992H297.19L297.574 11.4H256.23L225.638 11.528ZM361.469 99.208V101H398.205V99.208C398.205 99.208 393.597 99.08 390.653 98.44C383.485 97.032 380.413 89.224 378.109 83.208L351.229 11.4H313.213V13.192C313.213 13.192 332.413 13.96 334.205 13.96C338.557 14.216 338.941 17.16 338.173 19.336C336.765 23.048 334.589 27.912 333.437 30.216L313.853 70.536L307.581 83.72C307.197 84.36 303.997 90.248 301.949 93.064C299.901 95.752 297.725 97.288 294.909 98.184C292.477 98.952 285.565 99.208 285.565 99.208V101H330.109V99.208L302.717 98.056L315.389 72.072L354.045 49.672L372.221 98.312L361.469 99.208ZM316.925 68.744L341.885 17.416L353.277 47.752L316.925 68.744ZM52.504 227.208V229H88.088V227.208C88.088 227.208 82.2 227.08 80.536 226.568C77.592 225.8 76.568 224.008 76.184 221.576C75.8 219.912 75.8 216.84 75.8 214.408V156.168C75.8 152.84 75.8 148.488 76.184 146.824C76.568 144.392 77.592 142.6 80.536 141.832C82.2 141.32 88.088 141.192 88.088 141.192V139.4H65.048L45.976 209.288L24.728 139.4H0.28V141.192C0.28 141.192 6.168 141.32 7.832 141.832C10.776 142.6 11.8 144.392 12.184 146.824C12.568 148.488 12.568 152.84 12.568 156.168V214.408C12.568 216.84 12.568 219.912 12.184 221.576C11.8 224.008 10.776 225.8 7.832 226.568C6.168 227.08 0.28 227.208 0.28 227.208V229H28.312V227.208L14.616 226.056V142.856L40.6 229H42.648L65.048 147.336V226.184L52.504 227.208ZM130.207 229V227.336L113.567 226.056L113.695 220.936V141.448H118.047C135.583 141.448 148.511 147.976 148.511 162.184C148.511 173.832 139.295 182.024 125.599 182.024H122.143V184.072H125.471C144.671 184.072 159.263 175.368 159.263 161.928C159.263 154.376 152.863 139.4 118.175 139.4H90.655V141.192C90.655 141.192 96.543 141.32 98.207 141.832C101.151 142.6 102.175 144.392 102.559 146.824C102.943 148.488 102.943 151.56 102.943 153.992V212.232C102.943 215.56 102.943 219.912 102.559 221.576C102.175 224.008 101.151 225.8 98.207 226.568C96.543 227.08 90.655 227.208 90.655 227.208V229H130.207ZM201.879 227.208V229H238.615V227.208C238.615 227.208 234.007 227.08 231.063 226.44C223.895 225.032 220.823 217.224 218.519 211.208L191.639 139.4H153.623V141.192C153.623 141.192 172.823 141.96 174.615 141.96C178.967 142.216 179.351 145.16 178.583 147.336C177.175 151.048 174.999 155.912 173.847 158.216L154.263 198.536L147.991 211.72C147.607 212.36 144.407 218.248 142.359 221.064C140.311 223.752 138.135 225.288 135.319 226.184C132.887 226.952 125.975 227.208 125.975 227.208V229H170.519V227.208L143.127 226.056L155.799 200.072L194.455 177.672L212.631 226.312L201.879 227.208ZM157.335 196.744L182.295 145.416L193.687 175.752L157.335 196.744ZM238.078 151.048C238.078 159.752 244.222 165.512 252.286 170.504L219.39 198.792L220.414 200.2L234.11 190.344C232.318 203.016 236.158 230.792 266.75 230.792C283.39 230.792 296.83 220.04 296.83 204.936C296.83 197.896 295.166 192.264 292.606 187.528L283.006 131.72L281.214 131.976L282.878 146.312C277.502 141.192 266.238 137.48 256.382 137.48C246.526 137.48 238.078 141.192 238.078 151.048ZM258.686 165C249.086 161.16 241.406 157.704 241.406 150.792C241.406 143.752 246.526 139.784 253.438 139.784C264.574 139.784 280.446 150.152 287.358 174.472C288.126 177.032 288.894 180.104 289.534 183.176C282.366 174.344 270.974 169.864 261.118 166.024L271.87 156.04L270.718 154.632L258.686 165ZM254.718 172.04C268.926 180.488 286.974 187.912 286.974 206.472C286.974 218.632 278.27 228.744 265.214 228.744C239.23 228.744 234.366 190.984 249.342 177.032L254.718 172.04ZM343.477 227.208V229H379.189V227.208C379.189 227.208 373.301 227.08 371.637 226.568C368.565 225.8 367.669 224.008 367.285 221.576C366.901 219.912 366.901 216.84 366.773 214.408V156.168C366.901 152.84 366.901 148.488 367.285 146.824C367.669 144.392 368.565 142.6 371.637 141.832C373.301 141.32 379.189 141.192 379.189 141.192V139.4H343.477V141.192L356.021 142.216V181.768H323.765V142.216L336.309 141.192V139.4H300.725V141.192C300.725 141.192 306.613 141.32 308.277 141.832C311.221 142.6 312.245 144.392 312.629 146.824C313.013 148.488 313.013 152.84 313.013 156.168V214.408C313.013 216.84 313.013 219.912 312.629 221.576C312.245 224.008 311.221 225.8 308.277 226.568C306.613 227.08 300.725 227.208 300.725 227.208V229H336.309V227.208L323.765 226.184V183.816H356.021V226.184L343.477 227.208Z" fill="white"></path> </svg> 